<?xml version="1.0" standalone="no"?>
<!DOCTYPE svg PUBLIC "-//W3C//DTD SVG 20010904//EN"
 "http://www.w3.org/TR/2001/REC-SVG-20010904/DTD/svg10.dtd">
<svg version="1.0" xmlns="http://www.w3.org/2000/svg"
 width="330.000000pt" height="150.000000pt" viewBox="0 0 330.000000 150.000000"
 preserveAspectRatio="xMidYMid meet">

<g transform="translate(0.000000,150.000000) scale(0.100000,-0.100000)"
fill="#000000" stroke="none">
<path d="M473 1127 l-193 -112 0 -230 0 -230 196 -112 195 -112 194 112 195
112 0 230 0 230 -191 110 c-105 61 -194 111 -197 112 -4 1 -94 -49 -199 -110z
m386 -9 c97 -55 179 -106 183 -112 4 -6 8 -64 8 -128 0 -149 -2 -151 -135 -73
-86 51 -95 58 -78 69 10 7 60 37 111 66 51 29 91 55 89 57 -3 2 -55 -26 -117
-62 l-113 -66 -185 106 c-101 58 -186 104 -188 102 -2 -2 77 -51 176 -108 153
-87 178 -105 165 -115 -14 -10 -48 6 -201 94 -101 58 -184 108 -184 111 0 9
263 161 279 161 8 0 93 -46 190 -102z m-305 -170 c98 -57 178 -107 178 -112 0
-5 -57 -43 -127 -83 l-128 -73 -93 52 -94 53 0 105 c0 58 4 110 8 115 10 14
55 44 67 44 6 1 91 -45 189 -101z m384 -167 c55 -31 61 -37 46 -48 -14 -10
-23 -9 -48 6 -17 10 -59 35 -94 56 -35 20 -65 35 -68 32 -3 -3 28 -23 68 -45
118 -66 117 -65 75 -91 l-36 -22 -96 57 c-65 37 -93 60 -87 66 6 6 32 23 59
38 l48 28 35 -20 c19 -11 63 -37 98 -57z m-555 -59 c42 -24 75 -47 72 -52 -3
-5 -39 -27 -80 -50 -41 -23 -75 -44 -75 -47 0 -4 109 54 155 83 18 11 32 6
119 -43 112 -65 113 -55 -11 -124 l-72 -40 -83 47 c-124 71 -118 61 -118 176
0 55 3 98 8 96 4 -1 42 -22 85 -46z m394 -3 c154 -90 148 -74 49 -130 -47 -27
-92 -49 -100 -49 -36 0 -18 19 60 64 47 27 83 50 81 53 -3 2 -43 -19 -91 -46
l-87 -50 -57 30 c-89 48 -143 81 -140 85 14 14 167 94 180 94 9 0 56 -23 105
-51z m273 21 c0 -5 -2 -10 -4 -10 -3 0 -8 5 -11 10 -3 6 -1 10 4 10 6 0 11 -4
11 -10z m-15 -20 c8 -13 -20 -24 -42 -16 -15 6 -15 8 -3 16 20 13 37 12 45 0z
m-45 -31 c0 -17 -69 -44 -81 -32 -7 7 -1 16 22 31 31 19 59 20 59 1z m60 1 c0
-5 -4 -10 -10 -10 -5 0 -10 5 -10 10 0 6 5 10 10 10 6 0 10 -4 10 -10z m-12
-22 c12 -12 17 -88 6 -88 -10 0 -104 54 -104 60 0 8 54 38 71 39 8 1 20 -4 27
-11z m-52 -70 c30 -18 54 -35 54 -38 0 -7 -165 -100 -176 -100 -5 0 -35 15
-67 33 l-58 34 88 51 c48 28 92 52 96 52 5 0 33 -15 63 -32z m-281 -68 c3 -6
-4 -15 -17 -20 -13 -6 -52 -28 -87 -49 -57 -35 -91 -43 -91 -22 0 9 161 101
177 101 6 0 15 -5 18 -10z m48 -22 c12 -6 39 -22 61 -35 l38 -25 -86 -49 c-47
-27 -91 -49 -97 -49 -18 0 -121 62 -114 68 7 7 168 101 173 102 2 0 13 -5 25
-12z"/>
<path d="M302 996 c11 -13 351 -206 355 -203 3 4 -327 197 -351 206 -6 2 -8 1
-4 -3z"/>
<path d="M1940 978 c-26 -14 -57 -41 -75 -66 -26 -37 -30 -53 -30 -106 0 -52
5 -70 28 -105 107 -162 348 -89 348 105 0 145 -144 236 -271 172z m130 -23
c119 -61 96 -292 -31 -311 -75 -11 -139 63 -139 161 0 121 83 195 170 150z"/>
<path d="M2250 950 c0 -27 5 -50 10 -50 6 0 10 6 10 13 0 24 36 47 76 50 l39
2 0 -155 0 -155 -32 -3 c-21 -2 -33 -9 -33 -18 0 -11 20 -14 100 -14 80 0 100
3 100 14 0 9 -12 16 -32 18 l-33 3 0 155 0 155 37 3 c49 4 78 -12 78 -43 0
-16 6 -25 16 -25 12 0 14 10 12 48 l-3 47 -172 3 -173 2 0 -50z"/>
<path d="M1380 975 c0 -9 9 -15 25 -15 l26 0 -3 -152 c-3 -150 -3 -153 -25
-156 -13 -2 -23 -10 -23 -18 0 -11 17 -14 75 -14 60 0 75 3 75 15 0 8 -8 15
-19 15 -35 0 -42 23 -39 139 l3 112 65 -78 c36 -43 92 -109 125 -148 l60 -70
5 175 c5 172 5 175 28 178 12 2 22 10 22 18 0 11 -17 14 -76 14 -56 0 -75 -3
-72 -12 3 -7 13 -15 24 -17 10 -2 22 -8 26 -15 10 -15 10 -196 1 -195 -5 0
-53 54 -107 120 l-99 119 -49 0 c-36 0 -48 -4 -48 -15z"/>
<path d="M2660 945 c0 -33 4 -45 15 -45 8 0 15 8 15 18 0 10 5 23 12 30 15 15
158 17 158 2 0 -5 -49 -78 -110 -160 -60 -83 -110 -155 -110 -161 0 -5 66 -9
161 -9 l160 0 -3 47 c-3 45 -28 76 -28 35 0 -41 -25 -52 -121 -52 -49 0 -89 3
-89 8 0 4 52 76 115 160 63 85 115 158 115 163 0 5 -65 9 -145 9 l-145 0 0
-45z"/>
</g>
</svg>
